<svg width="259" height="259" viewBox="0 0 259 259" fill="none" xmlns="http://www.w3.org/2000/svg">
<path fill-rule="evenodd" clip-rule="evenodd" d="M88.7744 79.5023C86.2136 76.9444 82.0648 76.9444 79.5026 79.5023C76.9427 82.0628 76.9427 86.2126 79.5026 88.7731L94.068 103.337C95.3478 104.616 97.0261 105.257 98.7037 105.257C100.381 105.257 102.058 104.616 103.339 103.337C105.898 100.777 105.898 96.627 103.339 94.0671L88.7744 79.5023Z" fill="#56CCF2"/>
<path fill-rule="evenodd" clip-rule="evenodd" d="M93.7097 124.816C93.7097 121.196 90.7741 118.262 87.1541 118.262H66.5556C62.9362 118.262 60 121.195 60 124.816C60 128.435 62.9356 131.37 66.5556 131.37H87.1541C90.7741 131.369 93.7097 128.435 93.7097 124.816Z" fill="#56CCF2"/>
<path fill-rule="evenodd" clip-rule="evenodd" d="M91.0527 145.046L76.4858 159.611C73.925 162.17 73.925 166.32 76.4858 168.88C77.7656 170.16 79.442 170.8 81.121 170.8C82.798 170.8 84.4751 170.16 85.7549 168.88L100.322 154.315C102.882 151.756 102.882 147.605 100.322 145.046C97.7635 142.487 93.6135 142.487 91.0527 145.046Z" fill="#56CCF2"/>
<path fill-rule="evenodd" clip-rule="evenodd" d="M124.817 93.708C128.437 93.708 131.372 90.7727 131.372 87.1529V66.5543C131.372 62.9353 128.437 60 124.817 60C121.197 60 118.263 62.9347 118.263 66.5543V87.1535C118.263 90.7727 121.196 93.708 124.817 93.708Z" fill="#56CCF2"/>
<path fill-rule="evenodd" clip-rule="evenodd" d="M149.68 102.239C151.359 102.239 153.036 101.6 154.316 100.32L168.88 85.7559C171.441 83.196 171.441 79.0458 168.88 76.4865C166.321 73.9266 162.169 73.9266 159.611 76.4865L145.045 91.0506C142.485 93.6097 142.485 97.7607 145.045 100.32C146.325 101.6 148.003 102.239 149.68 102.239Z" fill="#56CCF2"/>
<circle cx="128" cy="128" r="123" stroke="#2F80ED" stroke-width="10"/>
<circle cx="128" cy="128" r="93" stroke="#2F80ED" stroke-width="10"/>
<path fill-rule="evenodd" clip-rule="evenodd" d="M254.08 225.775L215.072 186.769L242.901 170.695C245.076 169.438 246.342 167.052 246.16 164.547C245.98 162.042 244.384 159.861 242.052 158.931L117.952 109.432C115.518 108.461 112.741 109.033 110.889 110.885C109.036 112.738 108.464 115.515 109.435 117.947L158.93 242.05C159.861 244.382 162.042 245.978 164.547 246.159C167.053 246.341 169.44 245.075 170.696 242.9L186.769 215.073L225.775 254.08C227.004 255.31 228.672 256 230.411 256C232.149 256 233.816 255.31 235.045 254.08L254.08 235.044C256.64 232.485 256.64 228.335 254.08 225.775Z" fill="#56CCF2"/>
<path d="M254.08 225.775L252.312 227.543L252.312 227.543L254.08 225.775ZM215.072 186.769L213.821 184.604L211 186.233L213.304 188.537L215.072 186.769ZM242.901 170.695L244.151 172.86L244.152 172.859L242.901 170.695ZM246.16 164.547L243.667 164.727L243.667 164.728L246.16 164.547ZM242.052 158.931L241.125 161.253L241.126 161.253L242.052 158.931ZM117.952 109.432L117.025 111.754L117.026 111.755L117.952 109.432ZM110.889 110.885L109.121 109.117L109.121 109.118L110.889 110.885ZM109.435 117.947L111.757 117.021L111.757 117.021L109.435 117.947ZM158.93 242.05L156.608 242.976L156.608 242.977L158.93 242.05ZM164.547 246.159L164.729 243.666L164.728 243.666L164.547 246.159ZM170.696 242.9L168.531 241.649L168.531 241.65L170.696 242.9ZM186.769 215.073L188.536 213.305L186.233 211.002L184.604 213.822L186.769 215.073ZM225.775 254.08L227.544 252.313L227.543 252.312L225.775 254.08ZM235.045 254.08L233.277 252.312L233.277 252.313L235.045 254.08ZM254.08 235.044L252.312 233.277L252.312 233.277L254.08 235.044ZM255.848 224.007L216.839 185.001L213.304 188.537L252.312 227.543L255.848 224.007ZM216.322 188.934L244.151 172.86L241.651 168.53L213.821 184.604L216.322 188.934ZM244.152 172.859C247.155 171.124 248.904 167.827 248.654 164.366L243.667 164.728C243.779 166.276 242.997 167.752 241.65 168.53L244.152 172.859ZM248.654 164.367C248.404 160.907 246.201 157.893 242.977 156.608L241.126 161.253C242.568 161.828 243.555 163.176 243.667 164.727L248.654 164.367ZM242.978 156.609L118.878 107.11L117.026 111.755L241.125 161.253L242.978 156.609ZM118.879 107.111C115.516 105.768 111.68 106.559 109.121 109.117L112.656 112.653C113.803 111.507 115.52 111.154 117.025 111.754L118.879 107.111ZM109.121 109.118C106.562 111.676 105.771 115.512 107.113 118.874L111.757 117.021C111.157 115.518 111.51 113.8 112.657 112.653L109.121 109.118ZM107.113 118.874L156.608 242.976L161.252 241.124L111.757 117.021L107.113 118.874ZM156.608 242.977C157.894 246.199 160.907 248.403 164.367 248.653L164.728 243.666C163.177 243.554 161.828 242.566 161.252 241.124L156.608 242.977ZM164.366 248.653C167.828 248.904 171.126 247.154 172.861 244.15L168.531 241.65C167.754 242.996 166.278 243.778 164.729 243.666L164.366 248.653ZM172.861 244.15L188.933 216.323L184.604 213.822L168.531 241.649L172.861 244.15ZM185.001 216.841L224.008 255.848L227.543 252.312L188.536 213.305L185.001 216.841ZM224.007 255.847C225.706 257.547 228.01 258.5 230.411 258.5V253.5C229.335 253.5 228.303 253.073 227.544 252.313L224.007 255.847ZM230.411 258.5C232.812 258.5 235.115 257.547 236.814 255.847L233.277 252.313C232.517 253.073 231.486 253.5 230.411 253.5V258.5ZM236.813 255.848L255.848 236.812L252.312 233.277L233.277 252.312L236.813 255.848ZM255.848 236.812C259.384 233.276 259.384 227.543 255.847 224.007L252.312 227.543C253.896 229.126 253.896 231.693 252.312 233.277L255.848 236.812Z" fill="#56CCF2"/>
</svg>
